<?xml version="1.0" encoding="utf-8"?>
<!-- Generator: Adobe Illustrator 17.1.0, SVG Export Plug-In . SVG Version: 6.00 Build 0)  -->
<!DOCTYPE svg PUBLIC "-//W3C//DTD SVG 1.1//EN" "http://www.w3.org/Graphics/SVG/1.1/DTD/svg11.dtd">
<svg version="1.1" id="Layer_1" xmlns="http://www.w3.org/2000/svg" xmlns:xlink="http://www.w3.org/1999/xlink" x="0px" y="0px"
	 viewBox="0 0 127.357 29.56" enable-background="new 0 0 127.357 29.56" xml:space="preserve">
<g>
	<defs>
		<rect id="SVGID_1_" x="-6.007" y="-81.203" width="139.602" height="42.072"/>
	</defs>
	<use xlink:href="#SVGID_1_"  display="none" overflow="visible"/>
	<clipPath id="SVGID_2_">
		<use xlink:href="#SVGID_1_"  display="none" overflow="visible"/>
	</clipPath>
	<g clip-path="url(#SVGID_2_)">
		<text transform="matrix(1 0 0 1 -0.5172 -54.735)"><tspan x="0" y="0" font-family="'MyriadPro-BoldCond'" font-size="26.5052">M</tspan><tspan x="16.884" y="0" font-family="'MyriadPro-BoldCond'" font-size="26.5052" letter-spacing="-1">A</tspan><tspan x="27.697" y="0" font-family="'MyriadPro-BoldCond'" font-size="26.5052">T</tspan><tspan x="38.485" y="0" font-family="'MyriadPro-BoldCond'" font-size="26.5052">T REAMER</tspan></text>
	</g>
	<g display="none" clip-path="url(#SVGID_2_)">
		<text transform="matrix(1 0 0 1 0.2855 -47.8063)" display="inline"><tspan x="0" y="0" font-family="'HelveticaNeue-CondensedBlack'" font-size="8.8351" letter-spacing="2">director</tspan><tspan x="46.039" y="0" font-family="'HelveticaNeue-CondensedBlack'" font-size="8.8351" letter-spacing="2">/</tspan><tspan x="51.128" y="0" font-family="'HelveticaNeue-CondensedBlack'" font-size="8.8351" letter-spacing="2">cre</tspan><tspan x="69.204" y="0" font-family="'HelveticaNeue-CondensedBlack'" font-size="8.8351" letter-spacing="2">a</tspan><tspan x="75.769" y="0" font-family="'HelveticaNeue-CondensedBlack'" font-size="8.8351" letter-spacing="2">tive </tspan><tspan x="102.247" y="0" font-family="'HelveticaNeue-CondensedBlack'" font-size="8.8351" letter-spacing="2">m</tspan><tspan x="111.268" y="0" font-family="'HelveticaNeue-CondensedBlack'" font-size="8.8351" letter-spacing="2">in</tspan><tspan x="122.452" y="0" font-family="'HelveticaNeue-CondensedBlack'" font-size="8.8351">d</tspan></text>
	</g>
</g>
<g>
	<path fill="#FFFFFF" d="M17.475,25.447v0.295h-3.361v-5.544h3.191v0.296H14.48v2.182h2.655v0.295H14.48v2.477H17.475z"/>
	<path fill="#FFFFFF" d="M21.869,23.954l1.342,1.788h-0.447l-1.118-1.493l-1.117,1.493H20.08l1.342-1.788l-1.342-1.788h0.447
		l1.117,1.493l1.118-1.493h0.447L21.869,23.954z"/>
	<path fill="#FFFFFF" d="M27.423,25.742c-0.805,0-1.252-0.715-1.252-0.894v3.576h-0.357v-6.259h0.357v0.894
		c0-0.179,0.536-0.894,1.252-0.894c0.93,0,1.689,0.894,1.689,1.788S28.353,25.742,27.423,25.742z M28.389,22.979
		c-0.242-0.269-0.635-0.43-0.966-0.43s-0.644,0.161-0.886,0.43c-0.17,0.215-0.295,0.474-0.34,0.751v0.447
		c0.045,0.277,0.17,0.536,0.34,0.751c0.242,0.277,0.555,0.43,0.886,0.43s0.724-0.152,0.966-0.43
		c0.224-0.277,0.357-0.626,0.357-0.975S28.613,23.257,28.389,22.979z"/>
	<path fill="#FFFFFF" d="M34.588,24.849c0,0-0.357,0.894-1.342,0.894c-0.983,0-1.591-0.626-1.609-1.788
		c-0.018-1.341,0.742-1.788,1.503-1.788c0.625,0,1.448,0.447,1.448,1.698h-2.611c0,0.716,0.269,1.521,1.27,1.521
		c0.608,0,0.984-0.536,0.984-0.536H34.588z M31.986,23.561h2.245c0-0.536-0.35-1.073-1.154-1.073S32.004,23.113,31.986,23.561z"/>
	<path fill="#FFFFFF" d="M39.418,22.452l-0.242,0.268c-0.125-0.116-0.295-0.196-0.554-0.196c-0.787,0-1.073,0.626-1.073,0.93v2.289
		h-0.357v-3.531h0.357v0.581c0.143-0.313,0.555-0.626,1.073-0.626C38.98,22.166,39.23,22.282,39.418,22.452z"/>
	<path fill="#FFFFFF" d="M42.264,20.86c0.125,0,0.241,0.116,0.241,0.241c0,0.116-0.116,0.241-0.241,0.241
		c-0.116,0-0.241-0.125-0.241-0.241C42.023,20.977,42.148,20.86,42.264,20.86z M42.434,22.166h-0.357v3.559h0.357V22.166z"/>
	<path fill="#FFFFFF" d="M48.068,24.849c0,0-0.357,0.894-1.342,0.894c-0.983,0-1.591-0.626-1.609-1.788
		c-0.018-1.341,0.742-1.788,1.503-1.788c0.625,0,1.448,0.447,1.448,1.698h-2.611c0,0.716,0.269,1.521,1.27,1.521
		c0.608,0,0.984-0.536,0.984-0.536H48.068z M45.465,23.561h2.245c0-0.536-0.349-1.073-1.154-1.073
		C45.751,22.487,45.484,23.113,45.465,23.561z"/>
	<path fill="#FFFFFF" d="M53.265,25.742h-0.357v-2.324c0-0.269-0.081-0.895-0.805-0.895c-0.787,0-1.073,0.626-1.073,0.93v2.289
		h-0.357v-3.531h0.357v0.581c0.143-0.313,0.555-0.626,1.073-0.626c0.894,0,1.162,0.715,1.162,1.252
		C53.265,23.775,53.265,25.653,53.265,25.742z"/>
	<path fill="#FFFFFF" d="M58.766,23.149h-0.358c0,0-0.277-0.626-0.983-0.626c-0.652,0.009-1.243,0.501-1.243,1.431
		c0,0.912,0.394,1.439,1.243,1.431c0.706,0,0.983-0.536,0.983-0.536h0.358c0,0-0.358,0.894-1.342,0.894s-1.601-0.626-1.601-1.788
		s0.796-1.788,1.601-1.788C58.489,22.166,58.766,23.149,58.766,23.149z"/>
	<path fill="#FFFFFF" d="M64.241,24.849c0,0-0.357,0.894-1.342,0.894c-0.983,0-1.591-0.626-1.609-1.788
		c-0.018-1.341,0.742-1.788,1.503-1.788c0.625,0,1.448,0.447,1.448,1.698h-2.611c0,0.716,0.269,1.521,1.27,1.521
		c0.608,0,0.984-0.536,0.984-0.536H64.241z M61.638,23.561h2.245c0-0.536-0.35-1.073-1.154-1.073S61.657,23.113,61.638,23.561z"/>
	<path fill="#FFFFFF" d="M75.081,22.881c0,1.699-1.163,2.861-2.772,2.861c-1.368,0-1.511,0-1.52,0v-5.544c0,0,0,0,1.52,0
		C73.918,20.198,75.081,21.183,75.081,22.881z M74.723,22.881c0-1.476-0.992-2.324-2.414-2.324h-1.162v4.828h1.162
		C73.686,25.385,74.723,24.41,74.723,22.881z"/>
	<path fill="#FFFFFF" d="M80.6,24.849c0,0-0.357,0.894-1.342,0.894c-0.983,0-1.591-0.626-1.609-1.788
		c-0.018-1.341,0.742-1.788,1.503-1.788c0.625,0,1.448,0.447,1.448,1.698h-2.611c0,0.716,0.269,1.521,1.27,1.521
		c0.608,0,0.984-0.536,0.984-0.536H80.6z M77.997,23.561h2.245c0-0.536-0.35-1.073-1.154-1.073S78.016,23.113,77.997,23.561z"/>
	<path fill="#FFFFFF" d="M85.752,24.705c0,0.626-0.536,1.037-1.341,1.037c-0.626,0-1.342-0.268-1.342-0.894h0.376
		c0,0,0.08,0.536,0.966,0.536c0.295,0,0.983-0.116,0.983-0.68c0-0.805-2.146-0.607-2.146-1.583c0-0.715,0.716-0.956,1.163-0.956
		s1.162,0.089,1.162,0.715h-0.375c0,0,0.116-0.357-0.787-0.357c-0.823,0-0.805,0.411-0.805,0.599
		C83.607,23.829,85.752,23.597,85.752,24.705z"/>
	<path fill="#FFFFFF" d="M88.597,20.86c0.125,0,0.241,0.116,0.241,0.241c0,0.116-0.116,0.241-0.241,0.241
		c-0.116,0-0.241-0.125-0.241-0.241C88.356,20.977,88.481,20.86,88.597,20.86z M88.767,22.166H88.41v3.559h0.357V22.166z"/>
	<path fill="#FFFFFF" d="M94.509,22.523h-0.591c0.305,0.286,0.412,0.68,0.412,0.983c0,0.805-0.537,1.342-1.342,1.342
		c-0.25,0-0.482-0.045-0.68-0.116c-0.143,0.071-0.224,0.224-0.224,0.384c0,0.581,2.603,0.152,2.594,1.994
		c0,0.895-0.805,1.314-1.789,1.314c-1.072,0-1.788-0.59-1.788-1.395c0-0.858,1.118-1.1,1.118-1.1l0.321,0.116
		c0,0-1.082,0.286-1.082,0.983c0,0.429,0.385,1.063,1.431,1.063c0.868,0,1.431-0.375,1.431-0.983c0-1.681-2.593-0.938-2.593-1.994
		c0-0.259,0.17-0.411,0.34-0.51c-0.376-0.223-0.599-0.616-0.599-1.1c0-0.617,0.446-1.341,1.431-1.341c0.026,0,0.054,0,0.089,0h1.521
		V22.523z M92.9,22.523c-0.85,0-1.073,0.644-1.073,0.983c0,0.6,0.456,0.983,1.162,0.983c0.6,0,0.983-0.375,0.983-0.983
		C93.972,23.346,93.918,22.523,92.9,22.523z"/>
	<path fill="#FFFFFF" d="M99.661,25.742h-0.357v-2.324c0-0.269-0.081-0.895-0.805-0.895c-0.787,0-1.073,0.626-1.073,0.93v2.289
		h-0.357v-3.531h0.357v0.581c0.143-0.313,0.555-0.626,1.073-0.626c0.894,0,1.162,0.715,1.162,1.252
		C99.661,23.775,99.661,25.653,99.661,25.742z"/>
	<path fill="#FFFFFF" d="M105.18,24.849c0,0-0.357,0.894-1.342,0.894c-0.983,0-1.591-0.626-1.609-1.788
		c-0.018-1.341,0.742-1.788,1.503-1.788c0.625,0,1.448,0.447,1.448,1.698h-2.611c0,0.716,0.269,1.521,1.27,1.521
		c0.608,0,0.984-0.536,0.984-0.536H105.18z M102.578,23.561h2.245c0-0.536-0.35-1.073-1.154-1.073S102.596,23.113,102.578,23.561z"
		/>
	<path fill="#FFFFFF" d="M110.01,22.452l-0.242,0.268c-0.125-0.116-0.295-0.196-0.554-0.196c-0.787,0-1.073,0.626-1.073,0.93v2.289
		h-0.357v-3.531h0.357v0.581c0.143-0.313,0.555-0.626,1.073-0.626C109.572,22.166,109.822,22.282,110.01,22.452z"/>
</g>
<g>
	<path fill="#FFFFFF" d="M11.747,11.121c-0.1-1.6-0.2-3.749-0.175-5.574h-0.05c-0.3,1.799-0.75,3.874-1.075,5.174l-1.475,6.023
		H6.673l-1.399-5.923c-0.325-1.35-0.775-3.449-1.05-5.274h-0.05c-0.05,1.825-0.175,3.949-0.25,5.624l-0.3,5.848H0.825l1.2-16.845
		h3.474l1.35,6.098c0.45,2.125,0.875,3.999,1.175,5.899h0.075c0.25-1.875,0.625-3.774,1.05-5.899l1.35-6.098h3.449l1.024,16.845
		h-2.924L11.747,11.121z"/>
	<path fill="#FFFFFF" d="M20.674,13.17l-0.75,3.849H16.75l3.649-16.845h3.924l3.274,16.845h-3.199l-0.7-3.849H20.674z
		 M23.398,10.621l-0.55-3.524c-0.175-1.025-0.4-2.725-0.55-3.824h-0.075c-0.175,1.125-0.425,2.849-0.6,3.824l-0.625,3.524H23.398z"
		/>
	<path fill="#FFFFFF" d="M30.649,3.197h-2.975V0.173h9.248v3.024h-3v13.821h-3.274V3.197z"/>
	<path fill="#FFFFFF" d="M41.449,3.197h-2.975V0.173h9.248v3.024h-3v13.821h-3.274V3.197z"/>
	<path fill="#FFFFFF" d="M54.674,0.423c1.025-0.2,2.324-0.325,3.574-0.325c1.799,0,3.424,0.25,4.499,1.25
		c1.025,0.925,1.35,2.05,1.35,3.5c0,1.799-0.9,3.424-2.6,4.199v0.05c1.15,0.475,1.725,1.524,2.049,3.349
		c0.325,1.875,0.775,3.948,1.075,4.573h-3.424c-0.225-0.475-0.6-2.174-0.85-4.048c-0.3-2.075-0.825-2.674-1.899-2.674h-0.5v6.723
		h-3.274V0.423z M57.948,7.771h0.6c1.425,0,2.225-1.15,2.225-2.625c0-1.45-0.575-2.449-2.025-2.5c-0.3,0-0.625,0.025-0.8,0.1V7.771z
		"/>
	<path fill="#FFFFFF" d="M74.146,9.621h-3.824v4.549h4.324v2.849h-7.598V0.173h7.323v2.849h-4.049v3.874h3.824V9.621z"/>
	<path fill="#FFFFFF" d="M80.198,13.17l-0.75,3.849h-3.174l3.648-16.845h3.925l3.273,16.845h-3.199l-0.699-3.849H80.198z
		 M82.922,10.621l-0.55-3.524c-0.176-1.025-0.4-2.725-0.55-3.824h-0.075c-0.175,1.125-0.425,2.849-0.6,3.824l-0.625,3.524H82.922z"
		/>
	<path fill="#FFFFFF" d="M99.896,11.121c-0.1-1.6-0.2-3.749-0.175-5.574h-0.05c-0.3,1.799-0.75,3.874-1.075,5.174l-1.475,6.023
		h-2.299l-1.4-5.923c-0.324-1.35-0.774-3.449-1.05-5.274h-0.05c-0.05,1.825-0.175,3.949-0.25,5.624l-0.3,5.848h-2.799l1.199-16.845
		h3.475l1.35,6.098c0.449,2.125,0.874,3.999,1.175,5.899h0.074c0.25-1.875,0.625-3.774,1.05-5.899l1.35-6.098h3.449l1.025,16.845
		h-2.925L99.896,11.121z"/>
	<path fill="#FFFFFF" d="M113.246,9.621h-3.824v4.549h4.324v2.849h-7.599V0.173h7.323v2.849h-4.049v3.874h3.824V9.621z"/>
	<path fill="#FFFFFF" d="M116.622,0.423c1.025-0.2,2.325-0.325,3.574-0.325c1.8,0,3.425,0.25,4.499,1.25
		c1.025,0.925,1.35,2.05,1.35,3.5c0,1.799-0.899,3.424-2.599,4.199v0.05c1.149,0.475,1.724,1.524,2.049,3.349
		c0.325,1.875,0.775,3.948,1.075,4.573h-3.425c-0.225-0.475-0.6-2.174-0.85-4.048c-0.3-2.075-0.824-2.674-1.899-2.674h-0.5v6.723
		h-3.274V0.423z M119.897,7.771h0.6c1.425,0,2.225-1.15,2.225-2.625c0-1.45-0.574-2.449-2.024-2.5c-0.3,0-0.625,0.025-0.8,0.1V7.771
		z"/>
</g>
</svg>
